<svg width="480" height="800" viewBox="0 0 480 800" fill="none" xmlns="http://www.w3.org/2000/svg">
<path d="M46 731V208L233 36L437 224V731H46Z" fill="black"/>
<path d="M291.67 408.114C290.439 403.095 288.498 398.691 285.847 394.903C283.195 391.021 279.881 387.754 275.903 385.102C272.021 382.356 267.475 380.32 262.267 378.994C257.153 377.574 251.519 376.864 245.364 376.864C232.106 376.864 220.79 380.036 211.415 386.381C202.134 392.725 195.032 401.864 190.108 413.795C185.278 425.727 182.864 440.121 182.864 456.977C182.864 474.023 185.184 488.606 189.824 500.727C194.464 512.848 201.377 522.129 210.563 528.568C219.748 535.008 231.159 538.227 244.795 538.227C256.822 538.227 266.813 536.475 274.767 532.972C282.816 529.468 288.83 524.496 292.807 518.057C296.784 511.617 298.773 504.042 298.773 495.33L312.409 496.75H245.932V440.5H374.909V480.841C374.909 507.356 369.275 530.036 358.006 548.881C346.831 567.631 331.396 582.025 311.699 592.062C292.097 602.006 269.606 606.977 244.227 606.977C215.913 606.977 191.055 600.964 169.653 588.938C148.252 576.911 131.538 559.771 119.511 537.517C107.58 515.263 101.614 488.795 101.614 458.114C101.614 434.061 105.259 412.754 112.551 394.193C119.938 375.633 130.165 359.96 143.233 347.176C156.301 334.297 171.405 324.591 188.545 318.057C205.686 311.428 224.057 308.114 243.659 308.114C260.894 308.114 276.898 310.576 291.67 315.5C306.538 320.33 319.653 327.242 331.017 336.239C342.475 345.14 351.708 355.699 358.716 367.915C365.723 380.131 369.985 393.53 371.5 408.114H291.67Z" fill="white"/>
<path fill-rule="evenodd" clip-rule="evenodd" d="M400 679.976C400 702.056 374.6 719.976 352.48 719.976H112.48C90.3999 719.976 80 702.056 80 679.976V244.507C80 239.107 78.4003 233.95 82.2803 230.19L206.44 107.222C221.96 92.0617 245.84 92.0617 261.36 107.222L390.68 230.19C394.52 233.95 400 239.107 400 244.507V679.976ZM464.16 190.581L290.24 22.71C259.16 -7.57 208.64 -7.57 177.56 22.71L8.75977 190.581C1.03977 198.101 0 208.433 0 219.233V719.976C0 764.176 28.3199 799.976 72.4799 799.976H392.48C436.68 799.976 480 764.176 480 719.976V219.233C480 208.433 471.88 198.101 464.16 190.581Z" fill="black"/>
</svg>
