<?xml version="1.0" encoding="utf-8"?>
<svg version="1.1" xmlns="http://www.w3.org/2000/svg" width="800px" height="800px" viewBox="0 0 32 32" xml:space="preserve">
<path fill="#000" d="M4,28c-0.256,0-0.512-0.098-0.707-0.293c-0.391-0.391-0.391-1.023,0-1.414l16-16
	c0.391-0.391,1.023-0.391,1.414,0s0.391,1.023,0,1.414l-16,16C4.512,27.902,4.256,28,4,28z"/>
<path fill="#000" d="M25,10c-0.256,0-0.512-0.098-0.707-0.293l-2-2c-0.391-0.391-0.391-1.023,0-1.414
	c0.391-0.391,1.023-0.391,1.414,0l2,2c0.391,0.391,0.391,1.023,0,1.414C25.512,9.902,25.256,10,25,10z"/>
<path fill="#000" d="M6,10C5.447,10,5,9.553,5,9V6c0-0.553,0.447-1,1-1s1,0.447,1,1v3C7,9.553,6.553,10,6,10z"/>
<path fill="#000" d="M7.5,7.5H4.5C3.948,7.5,3.5,7.052,3.5,6.5S3.948,5.5,4.5,5.5h3c0.552,0,1,0.448,1,1S8.052,7.5,7.5,7.5z"/>
<path fill="#000" d="M27,20c-0.553,0-1-0.447-1-1v-3c0-0.553,0.447-1,1-1s1,0.447,1,1v3C28,19.553,27.553,20,27,20z"/>
<path fill="#000" d="M28.5,18.5h-3c-0.552,0-1-0.448-1-1s0.448-1,1-1h3c0.552,0,1,0.448,1,1S29.052,18.5,28.5,18.5z"/>
<path fill="#000" d="M17,7c-0.553,0-1-0.447-1-1V4c0-0.553,0.447-1,1-1s1,0.447,1,1v2C18,6.553,17.553,7,17,7z"/>
<path fill="#000" d="M18,5.5h-2c-0.552,0-1-0.448-1-1s0.448-1,1-1h2c0.552,0,1,0.448,1,1S18.552,5.5,18,5.5z"/>
</svg>
