<?xml version="1.0" encoding="utf-8"?>
<!-- Generator: Adobe Illustrator 16.0.0, SVG Export Plug-In . SVG Version: 6.00 Build 0)  -->
<!DOCTYPE svg PUBLIC "-//W3C//DTD SVG 1.1//EN" "http://www.w3.org/Graphics/SVG/1.1/DTD/svg11.dtd">
<svg version="1.1" id="Layer_1" xmlns="http://www.w3.org/2000/svg" xmlns:xlink="http://www.w3.org/1999/xlink" x="0px" y="0px"
	 width="24px" height="24px" viewBox="0 0 24 24" enable-background="new 0 0 24 24" xml:space="preserve">
<g>
	<path d="M20.836,3.933C18.644,1.522,15.504,0,11.998,0C8.496,0,5.354,1.522,3.164,3.933C1.217,6.077,0.02,8.92,0.02,12.051
		c0.002,5.716,1.217,8.717,3.203,10.296c0.362,0.288,0.746,0.53,1.156,0.73c-0.16-0.129-0.314-0.267-0.459-0.409
		c-1.201-1.179-1.953-2.805-1.967-4.598c-0.074-1.85-0.109-3.091-0.151-4.528c-0.019-0.758-0.044-1.566-0.074-2.558
		c0-3.741,3.893-6.537,7.376-6.537h5.793c4.223,0,7.376,3.45,7.376,6.554c-0.03,0.972-0.052,1.779-0.075,2.538
		c-0.041,1.437-0.076,2.679-0.15,4.514c-0.014,1.803-0.77,3.436-1.973,4.615c-0.156,0.156-0.324,0.302-0.497,0.442
		c0.45-0.217,0.876-0.481,1.269-0.799c1.945-1.591,3.135-4.593,3.135-10.26C23.98,8.92,22.783,6.077,20.836,3.933L20.836,3.933z"/>
	<path d="M14.749,5.493H9.251c-3.131,0-6.466,2.54-6.466,5.671c0.083,2.665,0.104,4.018,0.213,6.703
		c0.016,2.037,1.108,3.808,2.727,4.8c0.871,0.538,1.896,0.85,2.994,0.85h6.563c1.098,0,2.123-0.312,2.996-0.85
		c1.616-0.993,2.709-2.761,2.725-4.8c0.109-2.686,0.13-4.038,0.216-6.703C21.218,8.033,17.881,5.493,14.749,5.493z M8.719,15.45
		c-0.357,0.274-0.798,0.441-1.283,0.441c-1.179,0-2.135-0.958-2.135-2.136c0-1.181,0.956-2.136,2.135-2.136
		c0.412,0,0.796,0.123,1.122,0.323c0.606,0.378,1.014,1.045,1.014,1.813C9.571,14.449,9.235,15.062,8.719,15.45z M16.564,15.892
		c-0.485,0-0.927-0.167-1.283-0.441c-0.517-0.388-0.853-1.001-0.853-1.694c0-0.767,0.407-1.434,1.014-1.813
		c0.326-0.2,0.71-0.323,1.122-0.323c1.181,0,2.136,0.955,2.136,2.136C18.7,14.934,17.745,15.892,16.564,15.892z"/>
	<path d="M19.059,13.716"/>
</g>
</svg>
