<?xml version="1.0" encoding="UTF-8"?>
<!DOCTYPE svg PUBLIC "-//W3C//DTD SVG 1.1//EN" "http://www.w3.org/Graphics/SVG/1.1/DTD/svg11.dtd">
<!-- Creator: CorelDRAW 2019 (64-Bit) -->
<svg xmlns="http://www.w3.org/2000/svg" xml:space="preserve" width="5895px" height="5870px" version="1.1" style="shape-rendering:geometricPrecision; text-rendering:geometricPrecision; image-rendering:optimizeQuality; fill-rule:evenodd; clip-rule:evenodd"
viewBox="0 0 5900.27 5874.77"
 xmlns:xlink="http://www.w3.org/1999/xlink">
 <defs>
  <style type="text/css">
   <![CDATA[
    .fil0 {fill:#5522FF}
   ]]>
  </style>
 </defs>
 <g id="Слой_x0020_1">
  <metadata id="CorelCorpID_0Corel-Layer"/>
  <path class="fil0" d="M3037.45 1445.49c-791.77,-40.85 -1408.83,507.2 -1545.48,1366.58 -112.71,711.46 87.35,1577.91 257.81,1622.98 81.72,19.75 287.42,-146.51 415.62,-274.71 211.99,146.45 458.84,234.4 715.68,254.99 820.41,39.47 1521.42,-585.1 1576.51,-1404.61 32.08,-821.22 -599.6,-1516.81 -1420.14,-1563.82l0 -1.41 0 0zm-23.94 4412.51c-579.03,0 -848.11,-84.54 -1315.85,-422.66 -295.87,380.41 -1232.74,677.66 -1273.62,169.08 0,-381.82 -84.51,-704.45 -180.31,-1056.66 -114.12,-433.9 -243.73,-917.16 -243.73,-1617.35 0,-1672.31 1372.22,-2930.41 2998.02,-2930.41 1627.21,0 2902.24,1320.1 2902.24,2945.9 5.44,1600.67 -1286.08,2903.56 -2886.75,2912.1l0 0z"/>
 </g>
</svg>
