<?xml version="1.0" encoding="utf-8"?>
<!-- Uploaded to: SVG Repo, www.svgrepo.com, Generator: SVG Repo Mixer Tools -->
<svg fill="#000000" width="800px" height="800px" viewBox="0 0 32 32" version="1.1" xmlns="http://www.w3.org/2000/svg">
<title>step-backward</title>
<path d="M3.968 24.032q0 0.832 0.576 1.408t1.44 0.608h4q0.832 0 1.408-0.608t0.608-1.408v-16.064q0-0.8-0.608-1.408t-1.408-0.608h-4q-0.832 0-1.44 0.608t-0.576 1.408v16.064zM12 16q0 0.512 0.224 0.96t0.64 0.704l12.064 8.032q0.992 0.672 2.048 0.128 0.512-0.288 0.8-0.768t0.288-1.024v-16.064q0-0.544-0.288-1.024t-0.8-0.736q-0.48-0.256-1.056-0.224t-0.992 0.32l-12.064 8.032q-0.864 0.576-0.864 1.664z"></path>
</svg>