<svg width="200" height="200" viewBox="0 0 200 200" fill="none" xmlns="http://www.w3.org/2000/svg">
<path d="M152.628 95.625V113.648H111.037V95.625H152.628Z" fill="black"/>
<path d="M32.7188 149V60.2727H96.6648V79.6818H56.8068V94.9318H93.3722V114.341H56.8068V129.591H96.4915V149H32.7188ZM51.2614 52.4744C48.3153 52.4744 45.817 51.4924 43.7663 49.5284C41.7157 47.5644 40.6903 45.196 40.6903 42.4233C40.6903 39.6506 41.7157 37.2822 43.7663 35.3182C45.817 33.3542 48.3153 32.3722 51.2614 32.3722C54.1207 32.3722 56.5613 33.3542 58.5831 35.3182C60.6338 37.2822 61.6591 39.6506 61.6591 42.4233C61.6591 45.196 60.6338 47.5644 58.5831 49.5284C56.5613 51.4924 54.1207 52.4744 51.2614 52.4744ZM78.8153 52.4744C75.8693 52.4744 73.371 51.4924 71.3203 49.5284C69.2696 47.5644 68.2443 45.196 68.2443 42.4233C68.2443 39.6506 69.2696 37.2822 71.3203 35.3182C73.371 33.3542 75.8693 32.3722 78.8153 32.3722C81.6747 32.3722 84.1153 33.3542 86.1371 35.3182C88.1877 37.2822 89.2131 39.6506 89.2131 42.4233C89.2131 45.196 88.1877 47.5644 86.1371 49.5284C84.1153 51.4924 81.6747 52.4744 78.8153 52.4744Z" fill="black"/>
</svg>
