<svg width="200" height="200" viewBox="0 0 200 200" fill="none" xmlns="http://www.w3.org/2000/svg">
<g clip-path="url(#clip0_1_2)">
<path d="M3.95384 133V67.5455H31.2479C36.1484 67.5455 40.25 68.2379 43.5526 69.6229C46.8764 71.0078 49.3693 72.9467 51.0312 75.4396C52.7145 77.9325 53.5561 80.8196 53.5561 84.1009C53.5561 86.5938 53.0341 88.8203 51.9901 90.7805C50.946 92.7195 49.5078 94.3281 47.6754 95.6065C45.843 96.8849 43.723 97.7798 41.3153 98.2912V98.9304C43.9574 99.0582 46.397 99.772 48.6342 101.072C50.8928 102.371 52.7038 104.183 54.0675 106.505C55.4311 108.806 56.1129 111.533 56.1129 114.687C56.1129 118.202 55.218 121.345 53.4283 124.115C51.6385 126.864 49.0497 129.037 45.6619 130.635C42.2741 132.212 38.1619 133 33.3253 133H3.95384ZM19.7741 120.248H29.554C32.9844 120.248 35.5092 119.598 37.1286 118.298C38.7692 116.999 39.5895 115.188 39.5895 112.865C39.5895 111.182 39.1953 109.733 38.407 108.518C37.6186 107.283 36.5 106.335 35.0511 105.674C33.6023 104.992 31.8658 104.651 29.8416 104.651H19.7741V120.248ZM19.7741 94.456H28.5312C30.2571 94.456 31.7912 94.1683 33.1335 93.593C34.4759 93.0178 35.5199 92.1868 36.2656 91.1001C37.0327 90.0135 37.4162 88.7031 37.4162 87.169C37.4162 84.9744 36.6385 83.2486 35.0831 81.9915C33.5277 80.7344 31.429 80.1058 28.7869 80.1058H19.7741V94.456ZM63.7195 133V67.5455H90.7578C95.6584 67.5455 99.8878 68.5043 103.446 70.4219C107.026 72.3182 109.785 74.9709 111.724 78.38C113.663 81.7678 114.632 85.7095 114.632 90.2053C114.632 94.7223 113.641 98.6747 111.66 102.062C109.7 105.429 106.898 108.039 103.254 109.893C99.6108 111.746 95.2855 112.673 90.2784 112.673H73.5952V100.209H87.3381C89.7244 100.209 91.7166 99.7933 93.3146 98.9624C94.934 98.1314 96.1591 96.9702 96.9901 95.4787C97.821 93.9659 98.2365 92.2081 98.2365 90.2053C98.2365 88.1811 97.821 86.4339 96.9901 84.9638C96.1591 83.4723 94.934 82.3217 93.3146 81.5121C91.6953 80.7024 89.7031 80.2976 87.3381 80.2976H79.5398V133H63.7195ZM122.43 67.5455H142.022L158.641 108.071H159.408L176.028 67.5455H195.619V133H180.214V92.794H179.671L163.947 132.585H154.103L138.379 92.5703H137.835V133H122.43V67.5455Z" fill="black"/>
</g>
<defs>
<clipPath id="clip0_1_2">
<rect width="200" height="200" fill="white"/>
</clipPath>
</defs>
</svg>
