<svg width="24" height="24" viewBox="0 0 24 24" fill="none" xmlns="http://www.w3.org/2000/svg">
<rect x="3" y="3" width="18" height="19" fill="#00FF09"/>
<path d="M9.65684 11.0711L8.24264 12.4853L4 8.2426L8.24264 4L9.65684 5.41421L7.82844 7.2426H15.3655V9.2426H7.82844L9.65684 11.0711Z" fill="black"/>
<path d="M14.7087 13.4142L16.1229 12L20.3655 16.2427L16.1229 20.4853L14.7087 19.0711L16.5371 17.2427L9 17.2427L9 15.2427L16.5371 15.2427L14.7087 13.4142Z" fill="black"/>
<path fill-rule="evenodd" clip-rule="evenodd" d="M23 19C23 21.2091 21.2091 23 19 23H5C2.79086 23 1 21.2091 1 19V5C1 2.79086 2.79086 1 5 1H19C21.2091 1 23 2.79086 23 5V19ZM19 21H5C3.89543 21 3 20.1046 3 19V5C3 3.89543 3.89543 3 5 3H19C20.1046 3 21 3.89543 21 5V19C21 20.1046 20.1046 21 19 21Z" fill="black"/>
</svg>
