<?xml version="1.0" encoding="utf-8"?><!-- Uploaded to: SVG Repo, www.svgrepo.com, Generator: SVG Repo Mixer Tools -->
<svg fill="#000000" width="800px" height="800px" viewBox="0 0 24 24" id="fast-backward-2" data-name="Flat Color" xmlns="http://www.w3.org/2000/svg" class="icon flat-color"><path id="primary" d="M21.48,4.12a1,1,0,0,0-1,0L15,7.63V5a1,1,0,0,0-1.54-.84l-11,7a1,1,0,0,0,0,1.68l11,7A1,1,0,0,0,14,20a1,1,0,0,0,1-1V16.37l5.46,3.47A1,1,0,0,0,22,19V5A1,1,0,0,0,21.48,4.12Z" style="fill: rgb(0, 0, 0);"></path></svg>