<svg width="200" height="200" viewBox="0 0 200 200" fill="none" xmlns="http://www.w3.org/2000/svg">
<path d="M57.8224 52.3636V13.0909H69.7117V20.3011H70.1463C70.9645 17.9148 72.3452 16.0312 74.2884 14.6506C76.2315 13.2699 78.5497 12.5795 81.2429 12.5795C83.9702 12.5795 86.3054 13.2784 88.2486 14.6761C90.1918 16.0739 91.4276 17.9489 91.956 20.3011H92.3651C93.098 17.9659 94.5298 16.0994 96.6605 14.7017C98.7912 13.2869 101.305 12.5795 104.203 12.5795C107.919 12.5795 110.936 13.7727 113.254 16.1591C115.572 18.5284 116.732 21.7841 116.732 25.9261V52.3636H104.229V28.7898C104.229 26.8295 103.726 25.3381 102.72 24.3153C101.714 23.2756 100.411 22.7557 98.8082 22.7557C97.0867 22.7557 95.7315 23.3182 94.7429 24.4432C93.7713 25.5511 93.2855 27.0426 93.2855 28.9176V52.3636H81.2685V28.6619C81.2685 26.8381 80.7742 25.3977 79.7855 24.3409C78.7969 23.2841 77.4929 22.7557 75.8736 22.7557C74.7827 22.7557 73.8196 23.0199 72.9844 23.5483C72.1492 24.0597 71.4929 24.7926 71.0156 25.7472C70.5554 26.7017 70.3253 27.8267 70.3253 29.1222V52.3636H57.8224Z" fill="black"/>
<path d="M13.6023 52.3636H0L17.6676 0H34.517L52.1847 52.3636H38.5824L26.2841 13.1932H25.875L13.6023 52.3636ZM11.7869 31.7557H40.2188V41.3693H11.7869V31.7557Z" fill="black"/>
<path d="M52.5938 126.364V87.0909H64.483V94.3011H64.9176C65.7358 91.9148 67.1165 90.0313 69.0597 88.6506C71.0028 87.2699 73.321 86.5796 76.0142 86.5796C78.7415 86.5796 81.0767 87.2784 83.0199 88.6761C84.9631 90.0739 86.1989 91.9489 86.7273 94.3011H87.1364C87.8693 91.9659 89.3011 90.0994 91.4318 88.7017C93.5625 87.2869 96.0767 86.5796 98.9744 86.5796C102.69 86.5796 105.707 87.7727 108.026 90.1591C110.344 92.5284 111.503 95.7841 111.503 99.9261V126.364H99V102.79C99 100.83 98.4972 99.3381 97.4915 98.3154C96.4858 97.2756 95.1818 96.7557 93.5795 96.7557C91.858 96.7557 90.5028 97.3182 89.5142 98.4432C88.5426 99.5511 88.0568 101.043 88.0568 102.918V126.364H76.0398V102.662C76.0398 100.838 75.5455 99.3977 74.5568 98.3409C73.5682 97.2841 72.2642 96.7557 70.6449 96.7557C69.554 96.7557 68.5909 97.0199 67.7557 97.5483C66.9205 98.0597 66.2642 98.7926 65.7869 99.7472C65.3267 100.702 65.0966 101.827 65.0966 103.122V126.364H52.5938Z" fill="black"/>
<path d="M19.3551 126.364H0V74H19.3295C24.6648 74 29.2585 75.0483 33.1108 77.1449C36.9801 79.2244 39.9631 82.2244 42.0597 86.1449C44.1562 90.0483 45.2045 94.7187 45.2045 100.156C45.2045 105.611 44.1562 110.298 42.0597 114.219C39.9801 118.139 37.0057 121.148 33.1364 123.244C29.267 125.324 24.6733 126.364 19.3551 126.364ZM12.6563 115.574H18.8693C21.8011 115.574 24.2813 115.08 26.3097 114.091C28.3551 113.085 29.8977 111.457 30.9375 109.207C31.9943 106.94 32.5227 103.923 32.5227 100.156C32.5227 96.3892 31.9943 93.3892 30.9375 91.1562C29.8807 88.9062 28.321 87.2869 26.2585 86.2983C24.2131 85.2926 21.6903 84.7898 18.6903 84.7898H12.6563V115.574Z" fill="black"/>
<path d="M123 171.636V153.318H188.818V171.636H123Z" fill="black"/>
</svg>
