<svg width="200" height="200" viewBox="0 0 200 200" fill="none" xmlns="http://www.w3.org/2000/svg">
<path d="M150.207 66V38.7273H158.464V43.7344H158.765C159.334 42.0772 160.292 40.7692 161.642 39.8104C162.991 38.8516 164.601 38.3722 166.471 38.3722C168.365 38.3722 169.987 38.8575 171.336 39.8281C172.686 40.7988 173.544 42.1009 173.911 43.7344H174.195C174.704 42.1127 175.698 40.8165 177.178 39.8459C178.658 38.8634 180.404 38.3722 182.416 38.3722C184.997 38.3722 187.092 39.2008 188.702 40.858C190.311 42.5033 191.116 44.7642 191.116 47.6406V66H182.434V49.6293C182.434 48.268 182.085 47.2322 181.386 46.522C180.688 45.8 179.782 45.4389 178.67 45.4389C177.474 45.4389 176.533 45.8295 175.846 46.6108C175.172 47.3802 174.834 48.416 174.834 49.718V66H166.489V49.5405C166.489 48.2739 166.146 47.2737 165.459 46.5398C164.773 45.8059 163.867 45.4389 162.743 45.4389C161.985 45.4389 161.316 45.6224 160.736 45.9893C160.156 46.3445 159.701 46.8535 159.369 47.5163C159.05 48.1792 158.89 48.9605 158.89 49.8601V66H150.207Z" fill="black"/>
<path d="M127.125 66H113.684V29.6364H127.107C130.812 29.6364 134.002 30.3644 136.677 31.8203C139.364 33.2644 141.436 35.3478 142.892 38.0703C144.348 40.781 145.076 44.0244 145.076 47.8004C145.076 51.5883 144.348 54.8435 142.892 57.5661C141.448 60.2886 139.382 62.3778 136.695 63.8338C134.008 65.2779 130.818 66 127.125 66ZM122.473 58.5071H126.787C128.823 58.5071 130.546 58.1638 131.954 57.4773C133.375 56.7789 134.446 55.6484 135.168 54.0859C135.902 52.5116 136.269 50.4164 136.269 47.8004C136.269 45.1844 135.902 43.1011 135.168 41.5504C134.434 39.9879 133.351 38.8634 131.919 38.1769C130.498 37.4785 128.747 37.1293 126.663 37.1293H122.473V58.5071Z" fill="black"/>
<path d="M110.448 27.9318L98.729 71.4688H91.3249L103.044 27.9318H110.448Z" fill="black"/>
<path d="M47.3264 66V38.7273H55.5827V43.7344H55.8846C56.4528 42.0772 57.4116 40.7692 58.761 39.8104C60.1104 38.8516 61.7203 38.3722 63.5906 38.3722C65.4845 38.3722 67.1062 38.8575 68.4556 39.8281C69.805 40.7988 70.6632 42.1009 71.0302 43.7344H71.3143C71.8233 42.1127 72.8176 40.8165 74.2972 39.8459C75.7769 38.8634 77.5228 38.3722 79.5352 38.3722C82.1157 38.3722 84.2108 39.2008 85.8207 40.858C87.4305 42.5033 88.2354 44.7642 88.2354 47.6406V66H79.5529V49.6293C79.5529 48.268 79.2037 47.2322 78.5053 46.522C77.8069 45.8 76.9014 45.4389 75.7887 45.4389C74.5932 45.4389 73.6521 45.8295 72.9656 46.6108C72.2908 47.3802 71.9535 48.416 71.9535 49.718V66H63.6083V49.5405C63.6083 48.2739 63.265 47.2737 62.5785 46.5398C61.8919 45.8059 60.9864 45.4389 59.8619 45.4389C59.1043 45.4389 58.4355 45.6224 57.8555 45.9893C57.2755 46.3445 56.8197 46.8535 56.4883 47.5163C56.1687 48.1792 56.0089 48.9605 56.0089 49.8601V66H47.3264Z" fill="black"/>
<path d="M16.6179 66H7.17188L19.4411 29.6364H31.142L43.4112 66H33.9652L25.4247 38.7983H25.1406L16.6179 66ZM15.3572 51.6889H35.1016V58.3651H15.3572V51.6889Z" fill="black"/>
<path d="M39.6967 137.303C36.7678 134.374 36.7678 129.626 39.6967 126.697L87.4264 78.967C90.3553 76.0381 95.1041 76.0381 98.033 78.967C100.962 81.8959 100.962 86.6447 98.033 89.5736L55.6066 132L98.033 174.426C100.962 177.355 100.962 182.104 98.033 185.033C95.1041 187.962 90.3553 187.962 87.4264 185.033L39.6967 137.303ZM155 139.5H45V124.5H155V139.5Z" fill="black"/>
</svg>
