<?xml version="1.0" encoding="utf-8"?>


<svg version="1.1" id="Icons" xmlns="http://www.w3.org/2000/svg" xmlns:xlink="http://www.w3.org/1999/xlink" 
	 viewBox="0 0 32 32" xml:space="preserve">
<style type="text/css">
	.st0{fill:none;stroke:#000000;stroke-width:2;stroke-linecap:round;stroke-linejoin:round;stroke-miterlimit:10;}
</style>
<path d="M24,16c-4.4,0-8,3.6-8,8s3.6,8,8,8s8-3.6,8-8S28.4,16,24,16z M27,25h-2v2c0,0.6-0.4,1-1,1s-1-0.4-1-1v-2h-2
	c-0.6,0-1-0.4-1-1s0.4-1,1-1h2v-2c0-0.6,0.4-1,1-1s1,0.4,1,1v2h2c0.6,0,1,0.4,1,1S27.6,25,27,25z"/>
<g>
	<path d="M19.5,28H2.2c0.6-2,2.2-3.5,4.2-4.1c2.7-0.7,4.5-3.1,4.5-5.8c0-0.4-0.2-0.7-0.5-0.9C9,16.4,8.1,14.7,8,12.9
		c0-0.7,0.5-1.4,1.2-1.6l1.1-0.4c0.4-0.1,0.7-0.5,0.7-0.9V6.8c1.8,2.5,4.4,4.2,7.3,4.9C18.1,12.1,18,12.5,18,13c0,1.8-1,3.4-2.5,4.3
		c-0.3,0.2-0.5,0.5-0.5,0.9c0,2.2,1.2,4.1,3,5.1c0.1-0.7,0.3-1.4,0.6-2c-0.9-0.6-1.5-1.6-1.6-2.6c1.8-1.3,3-3.4,3-5.7
		c0-0.6,0.4-1,1-1c0.6,0,1-0.4,1-1V8.7c0-3.4-2.5-6.3-5.8-6.7c-2-0.2-4,0.5-5.4,2C9.8,3.9,8.9,4.2,8,4.9C6.7,5.8,6,7.3,6,9v3.8
		c0,0,0,0.1,0,0.1c0,0,0,0.1,0,0.1c0,0,0,0.1,0,0.1c0.1,2.2,1.2,4.3,2.9,5.6c-0.2,1.6-1.4,2.9-3,3.3c-3,0.8-5.2,3.1-5.8,6.1
		c-0.1,0.5,0,0.9,0.3,1.3C0.8,29.8,1.2,30,1.7,30H24C22.2,30,20.6,29.2,19.5,28z"/>
	<path d="M24,30h0.3c0.1,0,0.2,0,0.4,0C24.5,30,24.2,30,24,30z"/>
</g>
</svg>