<svg width="800" height="800" viewBox="0 0 800 800" fill="none" xmlns="http://www.w3.org/2000/svg">
<g clip-path="url(#clip0_1_51)">
<path d="M0.800017 658.4C-0.799983 648.8 0.266684 639.467 4.00002 630.4C7.73335 621.333 13.6 614.133 21.6 608.8C29.6 603.467 39.2 600.533 50.4 600H100V500C100 458.933 114.667 423.733 144 394.4C173.333 365.067 208.8 350.4 250.4 350.4H300C313.867 350.4 325.6 345.6 335.2 336C344.8 326.4 349.867 314.4 350.4 300V50.4C350.4 38.1333 353.6 27.7333 360 19.2C366.4 10.6667 374.933 5.59999 385.6 3.99999C396.267 2.39999 405.867 2.39999 414.4 3.99999C422.933 5.59999 431.467 10.6667 440 19.2C448.533 27.7333 452 38.1333 450.4 50.4V300C450.4 313.867 455.2 325.867 464.8 336C474.4 346.133 486.133 350.933 500 350.4H550.4C591.467 350.4 626.667 365.067 656 394.4C685.333 423.733 700 458.933 700 500V600H750.4C761.067 600 770.667 603.2 779.2 609.6C787.733 616 793.6 623.2 796.8 631.2C800 639.2 800.8 648.533 799.2 659.2C797.6 669.867 793.067 678.667 785.6 685.6L685.6 785.6C674.933 795.733 662.933 800.8 649.6 800.8C636.267 800.8 624.8 795.733 615.2 785.6L515.2 685.6C507.2 678.133 502.4 669.333 500.8 659.2C499.2 649.067 500.267 639.467 504 630.4C507.733 621.333 513.6 614.133 521.6 608.8C529.6 603.467 539.2 600.533 550.4 600H600V500C600 486.133 595.2 474.4 585.6 464.8C576 455.2 564.267 450.4 550.4 450.4H500C462.133 450.4 428.8 437.333 400 411.2C371.2 437.333 337.867 450.4 300 450.4H250.4C236.533 450.4 224.533 455.2 214.4 464.8C204.267 474.4 199.467 486.133 200 500V600H250.4C261.067 600 270.667 603.2 279.2 609.6C287.733 616 293.6 623.2 296.8 631.2C300 639.2 300.8 648.533 299.2 659.2C297.6 669.867 293.067 678.667 285.6 685.6L185.6 785.6C174.933 795.733 162.933 800.8 149.6 800.8C136.267 800.8 124.533 795.733 114.4 785.6L14.4 685.6C6.40002 677.6 1.86668 668.533 0.800017 658.4Z" fill="black"/>
<path d="M663.505 343C637.443 343 614.308 338.429 594.099 329.287C574.001 320.034 558.154 307.312 546.559 291.12C535.074 274.929 529.221 256.314 529 235.276H618.449C618.781 246.951 623.308 256.259 632.032 263.198C640.867 270.137 651.358 273.607 663.505 273.607C672.892 273.607 681.174 271.624 688.352 267.659C695.53 263.583 701.162 257.856 705.248 250.476C709.334 243.096 711.322 234.504 711.211 224.701C711.322 214.788 709.334 206.197 705.248 198.927C701.162 191.547 695.53 185.874 688.352 181.909C681.174 177.833 672.892 175.796 663.505 175.796C653.787 175.796 644.787 178.164 636.505 182.9C628.333 187.526 622.314 193.97 618.449 202.231L537.614 186.37L550.865 0H778.795V73.3584H626.4L619.774 148.039H621.762C627.063 137.795 636.229 129.313 649.26 122.594C662.29 115.765 677.419 112.351 694.647 112.351C714.856 112.351 732.856 117.032 748.648 126.395C764.55 135.757 777.084 148.699 786.249 165.222C795.526 181.634 800.108 200.579 799.998 222.058C800.108 245.629 794.476 266.557 783.102 284.842C771.838 303.016 755.991 317.281 735.561 327.634C715.132 337.878 691.113 343 663.505 343Z" fill="black"/>
</g>
<defs>
<clipPath id="clip0_1_51">
<rect width="800" height="800" fill="white"/>
</clipPath>
</defs>
</svg>
