<svg width="800" height="480" viewBox="0 0 800 480" fill="none" xmlns="http://www.w3.org/2000/svg">
<path fill-rule="evenodd" clip-rule="evenodd" d="M288.01 395.996C291.49 398.596 295.69 400 300.01 400H680.01C702.09 400 720.01 382.08 720.01 360V120C720.01 97.92 702.09 80 680.01 80H300.01C295.69 80 291.49 81.4039 288.01 84.0039L80.01 240L288.01 395.996ZM32.01 175.996L256.01 8.00781C262.93 2.80781 271.37 0 280.01 0H720.01C764.21 0 800.01 35.8 800.01 80V400C800.01 444.2 764.21 480 720.01 480H280.01C271.37 480 262.93 477.192 256.01 471.992L32.01 304.004C-10.67 272.004 -10.67 207.996 32.01 175.996Z" fill="black"/>
</svg>
