<?xml version="1.0" encoding="utf-8"?>
<!-- Uploaded to: SVG Repo, www.svgrepo.com, Generator: SVG Repo Mixer Tools -->
<svg fill="#000000" width="800px" height="800px" viewBox="-7 0 32 32" version="1.1" xmlns="http://www.w3.org/2000/svg">
<title>emphasis</title>
<path d="M16.406 22.125c0 0 1.063 0.125 1.094 0.125-0.125 1.344-0.844 3.438-1.25 4.125-1.594-0.031-4.469-0.063-6.938-0.063h-3.906c-1.438 0-3.156 0.031-5.406 0.063v-0.906l1.656-0.156c1.375-0.188 1.531-0.344 1.531-2.719v-9.625c0-2.344-0.156-2.5-1.531-2.75l-0.938-0.125v-0.906c1.406 0.063 3.156 0.094 4.594 0.094h6.344c1.938 0 3.625-0.031 4.031-0.094 0.031 0.406 0.219 2.25 0.375 3.969l-1.125 0.125c-0.313-0.906-0.719-1.656-1.125-2.031-0.563-0.469-1.469-0.781-2.938-0.781h-2.406c-0.969 0-0.969 0.031-0.969 1v4.5c0 0.75 0.031 0.781 0.844 0.781h2.063c1.563 0 1.906-0.188 2.219-1.406l0.156-0.656s1.094 0 1.094 0.031c-0.063 0.813-0.094 1.75-0.094 2.719 0 1 0.031 1.938 0.094 2.75 0 0.031-1.125 0.031-1.094 0.031l-0.156-0.656c-0.313-1.219-0.656-1.438-2.219-1.438h-2.063c-0.813 0-0.844 0.031-0.844 0.813v3.063c0 1.188 0.125 2 0.469 2.438 0.406 0.469 0.969 0.688 3.156 0.688 2.594 0 3.625-0.094 5.281-3zM10.625 5.75c0-1.219-0.969-2.188-2.188-2.188-1.188 0-2.188 0.969-2.188 2.188 0 1.188 1 2.188 2.188 2.188 1.219 0 2.188-1 2.188-2.188z"></path>
</svg>