<svg width="120" height="120" viewBox="0 0 120 120" fill="none" xmlns="http://www.w3.org/2000/svg">
<mask id="mask0_1_194" style="mask-type:alpha" maskUnits="userSpaceOnUse" x="0" y="0" width="120" height="120">
<path d="M0 60C0 26.8629 26.8629 0 60 0C93.1371 0 120 26.8629 120 60C120 93.1371 93.1371 120 60 120C26.8629 120 0 93.1371 0 60Z" fill="black"/>
</mask>
<g mask="url(#mask0_1_194)">
<path d="M0 60C0 26.8629 26.8629 0 60 0C93.1371 0 120 26.8629 120 60C120 93.1371 93.1371 120 60 120C26.8629 120 0 93.1371 0 60Z" fill="black"/>
<path fill-rule="evenodd" clip-rule="evenodd" d="M58.202 0C57.8998 24.3232 56.2395 37.994 47.1168 47.1167C37.994 56.2394 24.3232 57.8998 0 58.2019V61.798C24.3232 62.1002 37.9941 63.7605 47.1168 72.8833C56.2395 82.006 57.8998 95.6768 58.202 120H61.798C62.1002 95.6768 63.7606 82.006 72.8833 72.8832C82.006 63.7605 95.6768 62.1002 120 61.798V58.2019C95.6768 57.8997 82.006 56.2394 72.8832 47.1167C63.7605 37.994 62.1002 24.3231 61.798 0H58.202Z" fill="white"/>
</g>
</svg>
