<svg width="800" height="800" viewBox="0 0 800 800" fill="none" xmlns="http://www.w3.org/2000/svg">
<g clip-path="url(#clip0_1_51)">
<path d="M0.800017 658.4C-0.799983 648.8 0.266684 639.467 4.00002 630.4C7.73335 621.333 13.6 614.133 21.6 608.8C29.6 603.467 39.2 600.533 50.4 600H100V500C100 458.933 114.667 423.733 144 394.4C173.333 365.067 208.8 350.4 250.4 350.4H300C313.867 350.4 325.6 345.6 335.2 336C344.8 326.4 349.867 314.4 350.4 300V50.4C350.4 38.1333 353.6 27.7333 360 19.2C366.4 10.6667 374.933 5.59999 385.6 3.99999C396.267 2.39999 405.867 2.39999 414.4 3.99999C422.933 5.59999 431.467 10.6667 440 19.2C448.533 27.7333 452 38.1333 450.4 50.4V300C450.4 313.867 455.2 325.867 464.8 336C474.4 346.133 486.133 350.933 500 350.4H550.4C591.467 350.4 626.667 365.067 656 394.4C685.333 423.733 700 458.933 700 500V600H750.4C761.067 600 770.667 603.2 779.2 609.6C787.733 616 793.6 623.2 796.8 631.2C800 639.2 800.8 648.533 799.2 659.2C797.6 669.867 793.067 678.667 785.6 685.6L685.6 785.6C674.933 795.733 662.933 800.8 649.6 800.8C636.267 800.8 624.8 795.733 615.2 785.6L515.2 685.6C507.2 678.133 502.4 669.333 500.8 659.2C499.2 649.067 500.267 639.467 504 630.4C507.733 621.333 513.6 614.133 521.6 608.8C529.6 603.467 539.2 600.533 550.4 600H600V500C600 486.133 595.2 474.4 585.6 464.8C576 455.2 564.267 450.4 550.4 450.4H500C462.133 450.4 428.8 437.333 400 411.2C371.2 437.333 337.867 450.4 300 450.4H250.4C236.533 450.4 224.533 455.2 214.4 464.8C204.267 474.4 199.467 486.133 200 500V600H250.4C261.067 600 270.667 603.2 279.2 609.6C287.733 616 293.6 623.2 296.8 631.2C300 639.2 300.8 648.533 299.2 659.2C297.6 669.867 293.067 678.667 285.6 685.6L185.6 785.6C174.933 795.733 162.933 800.8 149.6 800.8C136.267 800.8 124.533 795.733 114.4 785.6L14.4 685.6C6.40002 677.6 1.86668 668.533 0.800017 658.4Z" fill="black"/>
<path d="M564.98 313V253.27L679.201 158.896C686.776 152.624 693.254 146.751 698.636 141.276C704.118 135.701 708.304 129.977 711.195 124.103C714.185 118.23 715.68 111.709 715.68 104.541C715.68 96.6769 713.986 89.9573 710.597 84.3825C707.308 78.8076 702.723 74.527 696.842 71.5405C690.962 68.4544 684.184 66.9114 676.51 66.9114C668.835 66.9114 662.058 68.4544 656.177 71.5405C650.397 74.6265 645.911 79.1561 642.722 85.1291C639.533 91.1021 637.938 98.3693 637.938 106.931H559C559 85.4277 563.834 66.9114 573.502 51.3815C583.17 35.8516 596.824 23.9056 614.466 15.5434C632.107 7.18112 652.789 3 676.51 3C701.029 3 722.258 6.93224 740.199 14.7967C758.239 22.5617 772.142 33.5122 781.91 47.6484C791.777 61.7845 796.711 78.3597 796.711 97.3738C796.711 109.121 794.269 120.818 789.385 132.465C784.501 144.013 775.731 156.805 763.073 170.842C750.415 184.879 732.424 201.603 709.102 221.015L680.397 244.908V246.699H800V313H564.98Z" fill="black"/>
</g>
<defs>
<clipPath id="clip0_1_51">
<rect width="800" height="800" fill="white"/>
</clipPath>
</defs>
</svg>
