<?xml version="1.0" encoding="iso-8859-1"?>
<!-- Generator: Adobe Illustrator 16.0.0, SVG Export Plug-In . SVG Version: 6.00 Build 0)  -->
<!DOCTYPE svg PUBLIC "-//W3C//DTD SVG 1.1//EN" "http://www.w3.org/Graphics/SVG/1.1/DTD/svg11.dtd">
<svg version="1.1" id="Capa_1" xmlns="http://www.w3.org/2000/svg" xmlns:xlink="http://www.w3.org/1999/xlink" x="0px" y="0px"
	 width="329.707px" height="329.707px" viewBox="0 0 329.707 329.707" style="enable-background:new 0 0 329.707 329.707;"
	 xml:space="preserve">
<g>
	<g id="_x33_44._Playlist">
		<g>
			<path d="M31.398,156.999h94.204v-31.392H31.398c-8.668,0-15.701,7.025-15.701,15.693
				C15.697,149.966,22.73,156.999,31.398,156.999z M31.398,94.205h94.204v-0.008l134.56-31.394H31.398
				c-8.668,0-15.701,7.027-15.701,15.693v0.008C15.697,87.169,22.73,94.205,31.398,94.205z M31.398,31.402h235.513
				c8.659,0,15.696-7.035,15.696-15.701C282.607,7.025,275.57,0,266.911,0H31.398C22.73,0,15.697,7.025,15.697,15.701
				C15.697,24.367,22.73,31.402,31.398,31.402z M31.398,219.811h94.204v-31.41H31.398c-8.668,0-15.701,7.029-15.701,15.701v0.008
				C15.697,212.774,22.73,219.811,31.398,219.811z M283.217,100.36l-95.425,19.081c-17.004,3.4-30.789,20.218-30.789,37.558v94.996
				c-2.537-0.509-5.16-0.789-7.851-0.789c-21.684,0-39.251,17.576-39.251,39.248c0,21.685,17.567,39.253,39.251,39.253
				c21.681,0,39.253-17.568,39.253-39.253c0-1.999-0.301-3.915-0.589-5.83l0.589-0.116v-109.56l94.202-17.949v63.594
				c-2.536-0.505-5.157-0.789-7.851-0.789c-21.68,0-39.248,17.576-39.248,39.253c0,21.68,17.568,39.249,39.248,39.249
				c21.1,0,38.179-16.68,39.085-37.566l0.168-0.027V125.606C314.01,108.256,300.221,96.959,283.217,100.36z M15.697,266.907
				c0,8.668,7.033,15.697,15.701,15.697h47.566c1.28-11.529,5.304-22.222,11.453-31.398H31.398
				C22.73,251.206,15.697,258.235,15.697,266.907z"/>
		</g>
	</g>
</g>
<g>
</g>
<g>
</g>
<g>
</g>
<g>
</g>
<g>
</g>
<g>
</g>
<g>
</g>
<g>
</g>
<g>
</g>
<g>
</g>
<g>
</g>
<g>
</g>
<g>
</g>
<g>
</g>
<g>
</g>
</svg>
