<?xml version="1.0" encoding="utf-8"?>
<!-- Uploaded to: SVG Repo, www.svgrepo.com, Generator: SVG Repo Mixer Tools -->
<svg fill="#000000" width="800px" height="800px" viewBox="0 0 32 32" version="1.1" xmlns="http://www.w3.org/2000/svg">
<title>step-forward</title>
<path d="M3.968 24.032q0 0.544 0.288 1.056t0.768 0.736q0.48 0.256 1.056 0.224t0.992-0.32l12.064-8.032q0.896-0.608 0.896-1.696t-0.896-1.664l-12.064-8.032q-0.448-0.288-0.992-0.32t-1.056 0.224q-0.48 0.256-0.768 0.736t-0.288 1.024v16.064zM20.032 24.032q0 0.832 0.576 1.44t1.408 0.576h4.032q0.8 0 1.408-0.576t0.608-1.44v-16.064q0-0.8-0.608-1.408t-1.408-0.576h-4.032q-0.832 0-1.408 0.576t-0.576 1.408v16.064z"></path>
</svg>