<svg width="330" height="330" viewBox="0 0 330 330" fill="none" xmlns="http://www.w3.org/2000/svg">
<path d="M31.398 156.999H125.602V125.607H31.398C22.73 125.607 15.697 132.632 15.697 141.3C15.697 149.966 22.73 156.999 31.398 156.999ZM31.398 219.811H125.602V188.401H31.398C22.73 188.401 15.697 195.43 15.697 204.102V204.11C15.697 212.774 22.73 219.811 31.398 219.811ZM15.697 266.907C15.697 275.575 22.73 282.604 31.398 282.604H78.964C80.244 271.075 84.268 260.382 90.417 251.206H31.398C22.73 251.206 15.697 258.235 15.697 266.907Z" fill="black"/>
<path d="M251.27 260.535C263.23 260.535 273.464 256.277 281.979 247.766C290.493 239.254 294.75 229.014 294.75 217.056V147.484C294.75 135.526 290.496 125.29 281.979 116.774C273.464 108.26 263.23 104 251.27 104C239.312 104 229.076 108.26 220.561 116.774C212.045 125.289 207.787 135.526 207.787 147.484V217.056C207.787 229.014 212.047 239.254 220.561 247.766C229.075 256.277 239.312 260.535 251.27 260.535Z" fill="black"/>
<path d="M326.955 193.548C325.239 191.827 323.196 190.966 320.841 190.966C318.488 190.966 316.45 191.827 314.726 193.548C313.007 195.269 312.146 197.307 312.146 199.661V217.056C312.146 233.815 306.188 248.15 294.276 260.062C282.367 271.975 268.03 277.932 251.27 277.932C234.51 277.932 220.175 271.975 208.261 260.062C196.35 248.153 190.394 233.816 190.394 217.056V199.661C190.394 197.307 189.533 195.269 187.813 193.548C186.091 191.827 184.055 190.966 181.698 190.966C179.341 190.966 177.303 191.827 175.582 193.548C173.86 195.269 173 197.307 173 199.661V217.056C173 237.076 179.682 254.492 193.043 269.302C206.404 284.113 222.914 292.605 242.573 294.777V312.716H207.787C205.431 312.716 203.393 313.578 201.672 315.299C199.951 317.02 199.09 319.058 199.09 321.414C199.09 323.765 199.951 325.808 201.672 327.528C203.393 329.248 205.431 330.112 207.787 330.112H294.75C297.105 330.112 299.146 329.249 300.864 327.528C302.588 325.809 303.449 323.766 303.449 321.414C303.449 319.059 302.588 317.02 300.864 315.299C299.146 313.578 297.105 312.716 294.75 312.716H259.968V294.777C279.624 292.605 296.133 284.113 309.495 269.302C322.858 254.492 329.542 237.076 329.542 217.056V199.661C329.542 197.307 328.679 195.271 326.955 193.548Z" fill="black"/>
<path d="M239.795 95.6364C232.462 95.6364 225.947 94.3788 220.25 91.8636C214.583 89.3182 210.129 85.8182 206.886 81.3636C203.644 76.9091 202.008 71.7879 201.977 66H227.432C227.462 67.7879 228.008 69.3939 229.068 70.8182C230.159 72.2121 231.644 73.303 233.523 74.0909C235.402 74.8788 237.553 75.2727 239.977 75.2727C242.311 75.2727 244.371 74.8636 246.159 74.0455C247.947 73.197 249.341 72.0303 250.341 70.5455C251.341 69.0606 251.826 67.3636 251.795 65.4546C251.826 63.5758 251.25 61.9091 250.068 60.4546C248.917 59 247.295 57.8636 245.205 57.0455C243.114 56.2273 240.705 55.8182 237.977 55.8182H228.523V38.3636H237.977C240.492 38.3636 242.705 37.9545 244.614 37.1364C246.553 36.3182 248.053 35.1818 249.114 33.7273C250.205 32.2727 250.735 30.6061 250.705 28.7273C250.735 26.9091 250.295 25.303 249.386 23.9091C248.477 22.5152 247.205 21.4242 245.568 20.6364C243.962 19.8485 242.099 19.4545 239.977 19.4545C237.674 19.4545 235.614 19.8636 233.795 20.6818C232.008 21.5 230.598 22.6364 229.568 24.0909C228.538 25.5455 228.008 27.2121 227.977 29.0909H203.795C203.826 23.3939 205.386 18.3636 208.477 14C211.599 9.63636 215.871 6.21212 221.295 3.72727C226.72 1.24242 232.947 0 239.977 0C246.856 0 252.932 1.16667 258.205 3.5C263.508 5.83333 267.644 9.04546 270.614 13.1364C273.614 17.197 275.098 21.8485 275.068 27.0909C275.129 32.303 273.341 36.5758 269.705 39.9091C266.098 43.2424 261.523 45.2121 255.977 45.8182V46.5455C263.492 47.3636 269.144 49.6667 272.932 53.4546C276.72 57.2121 278.583 61.9394 278.523 67.6364C278.553 73.0909 276.917 77.9242 273.614 82.1364C270.341 86.3485 265.78 89.6515 259.932 92.0455C254.114 94.4394 247.402 95.6364 239.795 95.6364Z" fill="black"/>
<path d="M119.25 94.3636V1.27274H159.432C166.341 1.27274 172.386 2.63637 177.568 5.36365C182.75 8.09092 186.78 11.9243 189.659 16.8636C192.538 21.803 193.977 27.5758 193.977 34.1818C193.977 40.8485 192.492 46.6212 189.523 51.5C186.583 56.3788 182.447 60.1364 177.114 62.7727C171.811 65.4091 165.614 66.7273 158.523 66.7273H134.523V47.0909H153.432C156.402 47.0909 158.932 46.5758 161.023 45.5455C163.144 44.4849 164.765 42.9849 165.886 41.0455C167.038 39.1061 167.614 36.8182 167.614 34.1818C167.614 31.5152 167.038 29.2424 165.886 27.3636C164.765 25.4546 163.144 24 161.023 23C158.932 21.9697 156.402 21.4546 153.432 21.4546H144.523V94.3636H119.25Z" fill="black"/>
<path d="M0 1.27274H31.4545L53.0909 54H54.1818L75.8182 1.27274H107.273V94.3636H82.5455V40.5455H81.8182L61.0909 93.6364H46.1818L25.4545 40.1818H24.7273V94.3636H0V1.27274Z" fill="black"/>
</svg>
