<svg width="200" height="200" viewBox="0 0 200 200" fill="none" xmlns="http://www.w3.org/2000/svg">
<g clip-path="url(#clip0_1_2)">
<circle cx="100" cy="100" r="100" fill="black"/>
<path d="M98.5099 83V43.7273H110.399V50.9375H110.834C111.652 48.5511 113.033 46.6676 114.976 45.2869C116.919 43.9063 119.237 43.2159 121.93 43.2159C124.658 43.2159 126.993 43.9148 128.936 45.3125C130.879 46.7102 132.115 48.5852 132.643 50.9375H133.053C133.786 48.6023 135.217 46.7358 137.348 45.3381C139.479 43.9233 141.993 43.2159 144.891 43.2159C148.607 43.2159 151.624 44.4091 153.942 46.7955C156.26 49.1648 157.419 52.4205 157.419 56.5625V83H144.916V59.4261C144.916 57.4659 144.413 55.9744 143.408 54.9517C142.402 53.9119 141.098 53.392 139.496 53.392C137.774 53.392 136.419 53.9545 135.43 55.0795C134.459 56.1875 133.973 57.679 133.973 59.554V83H121.956V59.2983C121.956 57.4744 121.462 56.0341 120.473 54.9773C119.484 53.9205 118.18 53.392 116.561 53.392C115.47 53.392 114.507 53.6563 113.672 54.1847C112.837 54.696 112.18 55.429 111.703 56.3835C111.243 57.3381 111.013 58.4631 111.013 59.7585V83H98.5099Z" fill="white"/>
<path d="M54.2898 83H40.6875L58.3551 30.6364H75.2045L92.8722 83H79.2699L66.9716 43.8295H66.5625L54.2898 83ZM52.4744 62.392H80.9062V72.0057H52.4744V62.392Z" fill="white"/>
<path d="M95.5568 153V113.727H107.446V120.937H107.881C108.699 118.551 110.08 116.668 112.023 115.287C113.966 113.906 116.284 113.216 118.977 113.216C121.705 113.216 124.04 113.915 125.983 115.312C127.926 116.71 129.162 118.585 129.69 120.937H130.099C130.832 118.602 132.264 116.736 134.395 115.338C136.526 113.923 139.04 113.216 141.938 113.216C145.653 113.216 148.67 114.409 150.989 116.795C153.307 119.165 154.466 122.42 154.466 126.562V153H141.963V129.426C141.963 127.466 141.46 125.974 140.455 124.952C139.449 123.912 138.145 123.392 136.543 123.392C134.821 123.392 133.466 123.955 132.477 125.08C131.506 126.187 131.02 127.679 131.02 129.554V153H119.003V129.298C119.003 127.474 118.509 126.034 117.52 124.977C116.531 123.92 115.227 123.392 113.608 123.392C112.517 123.392 111.554 123.656 110.719 124.185C109.884 124.696 109.227 125.429 108.75 126.384C108.29 127.338 108.06 128.463 108.06 129.759V153H95.5568Z" fill="white"/>
<path d="M62.3182 153H42.9631V100.636H62.2926C67.6278 100.636 72.2216 101.685 76.0739 103.781C79.9432 105.861 82.9261 108.861 85.0227 112.781C87.1193 116.685 88.1676 121.355 88.1676 126.793C88.1676 132.247 87.1193 136.935 85.0227 140.855C82.9432 144.776 79.9688 147.784 76.0994 149.881C72.2301 151.96 67.6364 153 62.3182 153ZM55.6193 142.21H61.8324C64.7642 142.21 67.2443 141.716 69.2727 140.727C71.3182 139.722 72.8608 138.094 73.9006 135.844C74.9574 133.577 75.4858 130.56 75.4858 126.793C75.4858 123.026 74.9574 120.026 73.9006 117.793C72.8438 115.543 71.2841 113.923 69.2216 112.935C67.1761 111.929 64.6534 111.426 61.6534 111.426H55.6193V142.21Z" fill="white"/>
</g>
<defs>
<clipPath id="clip0_1_2">
<rect width="200" height="200" fill="white"/>
</clipPath>
</defs>
</svg>
